<svg xmlns="http://www.w3.org/2000/svg" version="1.1" xmlns:xlink="http://www.w3.org/1999/xlink" xmlns:svgjs="http://svgjs.com/svgjs" width="1440" height="560" preserveAspectRatio="none" viewBox="0 0 1440 560"><g mask="url(&quot;#SvgjsMask1585&quot;)" fill="none"><rect width="1440" height="560" x="0" y="0" fill="rgba(33, 37, 41, 1)"></rect><circle r="61.65276503040425" cx="676.33" cy="350.75" stroke="rgba(33, 37, 41, 1)" stroke-width="2.02" stroke-dasharray="3, 3"></circle><rect width="108" height="108" clip-path="url(&quot;#SvgjsClipPath1586&quot;)" x="973.8" y="-29.66" fill="url(#SvgjsPattern1587)" transform="rotate(13.42, 1027.8, 24.34)"></rect><rect width="365.12" height="365.12" clip-path="url(&quot;#SvgjsClipPath1588&quot;)" x="-86.32" y="78.8" fill="url(#SvgjsPattern1589)" transform="rotate(103.02, 96.24, 261.36)"></rect><rect width="360" height="360" clip-path="url(&quot;#SvgjsClipPath1590&quot;)" x="459.5" y="-25.8" fill="url(#SvgjsPattern1591)" transform="rotate(175.58, 639.5, 154.2)"></rect><rect width="127.2" height="127.2" clip-path="url(&quot;#SvgjsClipPath1592&quot;)" x="805.86" y="452.18" fill="url(#SvgjsPattern1593)" transform="rotate(334.11, 869.46, 515.78)"></rect><path d="M249.37 457.40999999999997 L238.9 545.91L186.60173663902216 444.12673663902217z" stroke="rgba(220, 53, 69, 1)" stroke-width="2.57" stroke-dasharray="3, 3"></path><circle r="46.666666666666664" cx="343.64" cy="210.69" fill="rgba(33, 37, 41, 1)"></circle><rect width="207.36" height="207.36" clip-path="url(&quot;#SvgjsClipPath1594&quot;)" x="589.46" y="156.35" fill="url(#SvgjsPattern1595)" transform="rotate(172.33, 693.14, 260.03)"></rect><circle r="78.47100848066268" cx="399.53" cy="391.53" fill="rgba(220, 53, 69, 1)"></circle><path d="M62.53 641.74 L122.94 511.27L-2.4203942459067065 481.3496057540933z" stroke="rgba(255, 200, 0, 1)" stroke-width="1" stroke-dasharray="3, 3"></path><circle r="46.666666666666664" cx="351.47" cy="539.17" stroke="rgba(25, 135, 84, 1)" stroke-width="2.17" stroke-dasharray="2, 2"></circle><path d="M1347.84 172.3L1345.84 184.95 1333.06 185.77 1331.05 198.42 1318.28 199.25 1316.27 211.9 1303.49 212.72M1342.45 166.39L1340.45 179.04 1327.67 179.86 1325.67 192.51 1312.89 193.34 1310.88 205.98 1298.11 206.81M1337.06 160.48L1335.06 173.13 1322.28 173.95 1320.28 186.6 1307.5 187.42 1305.5 200.07 1292.72 200.9" stroke="rgba(220, 53, 69, 1)" stroke-width="1.15"></path></g><defs><mask id="SvgjsMask1585"><rect width="1440" height="560" fill="#ffffff"></rect></mask><pattern x="0" y="0" width="6" height="6" patternUnits="userSpaceOnUse" id="SvgjsPattern1587"><path d="M0 6L3 0L6 6" stroke="rgba(255, 200, 0, 1)" fill="none"></path></pattern><clipPath id="SvgjsClipPath1586"><circle r="27" cx="1027.8" cy="24.34"></circle></clipPath><pattern x="0" y="0" width="6.52" height="6.52" patternUnits="userSpaceOnUse" id="SvgjsPattern1589"><path d="M0 6.52L3.26 0L6.52 6.52" stroke="rgba(220, 53, 69, 1)" fill="none"></path></pattern><clipPath id="SvgjsClipPath1588"><circle r="91.28" cx="96.24" cy="261.36"></circle></clipPath><pattern x="0" y="0" width="360" height="6" patternUnits="userSpaceOnUse" id="SvgjsPattern1591"><rect width="360" height="3" x="0" y="0" fill="rgba(25, 135, 84, 1)"></rect><rect width="360" height="3" x="0" y="3" fill="rgba(0, 0, 0, 0)"></rect></pattern><clipPath id="SvgjsClipPath1590"><circle r="90" cx="639.5" cy="154.2"></circle></clipPath><pattern x="0" y="0" width="12.72" height="12.72" patternUnits="userSpaceOnUse" id="SvgjsPattern1593"><path d="M6.36 1L6.36 11.72M1 6.36L11.72 6.36" stroke="rgba(25, 135, 84, 1)" fill="none" stroke-width="3.45"></path></pattern><clipPath id="SvgjsClipPath1592"><circle r="31.8" cx="869.46" cy="515.78"></circle></clipPath><pattern x="0" y="0" width="207.36" height="6.48" patternUnits="userSpaceOnUse" id="SvgjsPattern1595"><rect width="207.36" height="3.24" x="0" y="0" fill="rgba(220, 53, 69, 1)"></rect><rect width="207.36" height="3.24" x="0" y="3.24" fill="rgba(0, 0, 0, 0)"></rect></pattern><clipPath id="SvgjsClipPath1594"><circle r="51.84" cx="693.14" cy="260.03"></circle></clipPath></defs></svg>