<svg xmlns="http://www.w3.org/2000/svg" version="1.1" xmlns:xlink="http://www.w3.org/1999/xlink" xmlns:svgjs="http://svgjs.com/svgjs" width="1437" height="560" preserveAspectRatio="none" viewBox="0 0 1437 560"><g mask="url(&quot;#SvgjsMask1026&quot;)" fill="none"><rect width="1437" height="560" x="0" y="0" fill="rgba(50, 48, 49, 1)"></rect><path d="M-44.68 362.01L-44.68 362.01" stroke="rgba(81, 67, 12, 1)" stroke-width="1.5"></path><path d="M-44.68 362.01L86.49 372.38" stroke="rgba(81, 67, 12, 1)" stroke-width="1.5"></path><path d="M-44.68 362.01L-104.93 557.22" stroke="rgba(81, 67, 12, 1)" stroke-width="1.5"></path><path d="M-44.68 362.01L95.81 517.01" stroke="rgba(81, 67, 12, 1)" stroke-width="1.5"></path><path d="M-44.68 362.01L240.4 409.59" stroke="rgba(81, 67, 12, 1)" stroke-width="1.5"></path><path d="M-44.68 362.01L49.48 651.77" stroke="rgba(81, 67, 12, 1)" stroke-width="1.5"></path><path d="M-104.93 557.22L-104.93 557.22" stroke="rgba(81, 67, 12, 1)" stroke-width="1.5"></path><path d="M-104.93 557.22L-108.59 676.96" stroke="rgba(81, 67, 12, 1)" stroke-width="1.5"></path><path d="M-104.93 557.22L49.48 651.77" stroke="rgba(81, 67, 12, 1)" stroke-width="1.5"></path><path d="M-108.59 676.96L-108.59 676.96" stroke="rgba(81, 67, 12, 1)" stroke-width="1.5"></path><path d="M-108.59 676.96L49.48 651.77" stroke="rgba(81, 67, 12, 1)" stroke-width="1.5"></path><path d="M-108.59 676.96L95.81 517.01" stroke="rgba(81, 67, 12, 1)" stroke-width="1.5"></path><path d="M-108.59 676.96L190.24 654.18" stroke="rgba(81, 67, 12, 1)" stroke-width="1.5"></path><path d="M-108.59 676.96L-44.68 362.01" stroke="rgba(81, 67, 12, 1)" stroke-width="1.5"></path><path d="M86.49 372.38L86.49 372.38" stroke="rgba(81, 67, 12, 1)" stroke-width="1.5"></path><path d="M86.49 372.38L95.81 517.01" stroke="rgba(81, 67, 12, 1)" stroke-width="1.5"></path><path d="M95.81 517.01L95.81 517.01" stroke="rgba(81, 67, 12, 1)" stroke-width="1.5"></path><path d="M95.81 517.01L49.48 651.77" stroke="rgba(81, 67, 12, 1)" stroke-width="1.5"></path><path d="M95.81 517.01L235.31 546.45" stroke="rgba(81, 67, 12, 1)" stroke-width="1.5"></path><path d="M49.48 651.77L49.48 651.77" stroke="rgba(81, 67, 12, 1)" stroke-width="1.5"></path><path d="M49.48 651.77L190.24 654.18" stroke="rgba(81, 67, 12, 1)" stroke-width="1.5"></path><path d="M49.48 651.77L235.31 546.45" stroke="rgba(81, 67, 12, 1)" stroke-width="1.5"></path><path d="M49.48 651.77L86.49 372.38" stroke="rgba(81, 67, 12, 1)" stroke-width="1.5"></path><path d="M240.4 409.59L240.4 409.59" stroke="rgba(81, 67, 12, 1)" stroke-width="1.5"></path><path d="M240.4 409.59L235.31 546.45" stroke="rgba(81, 67, 12, 1)" stroke-width="1.5"></path><path d="M240.4 409.59L382.99 400.33" stroke="rgba(81, 67, 12, 1)" stroke-width="1.5"></path><path d="M240.4 409.59L86.49 372.38" stroke="rgba(81, 67, 12, 1)" stroke-width="1.5"></path><path d="M240.4 409.59L95.81 517.01" stroke="rgba(81, 67, 12, 1)" stroke-width="1.5"></path><path d="M240.4 409.59L406.11 544.88" stroke="rgba(81, 67, 12, 1)" stroke-width="1.5"></path><path d="M235.31 546.45L235.31 546.45" stroke="rgba(81, 67, 12, 1)" stroke-width="1.5"></path><path d="M235.31 546.45L190.24 654.18" stroke="rgba(81, 67, 12, 1)" stroke-width="1.5"></path><path d="M190.24 654.18L190.24 654.18" stroke="rgba(81, 67, 12, 1)" stroke-width="1.5"></path><path d="M382.99 400.33L382.99 400.33" stroke="rgba(81, 67, 12, 1)" stroke-width="1.5"></path><path d="M382.99 400.33L505.4 358.84" stroke="rgba(81, 67, 12, 1)" stroke-width="1.5"></path><path d="M406.11 544.88L406.11 544.88" stroke="rgba(81, 67, 12, 1)" stroke-width="1.5"></path><path d="M406.11 544.88L490.44 502.86" stroke="rgba(81, 67, 12, 1)" stroke-width="1.5"></path><path d="M406.11 544.88L387.38 641.04" stroke="rgba(81, 67, 12, 1)" stroke-width="1.5"></path><path d="M406.11 544.88L382.99 400.33" stroke="rgba(81, 67, 12, 1)" stroke-width="1.5"></path><path d="M406.11 544.88L235.31 546.45" stroke="rgba(81, 67, 12, 1)" stroke-width="1.5"></path><path d="M406.11 544.88L538.75 673.14" stroke="rgba(81, 67, 12, 1)" stroke-width="1.5"></path><path d="M406.11 544.88L505.4 358.84" stroke="rgba(81, 67, 12, 1)" stroke-width="1.5"></path><path d="M387.38 641.04L387.38 641.04" stroke="rgba(81, 67, 12, 1)" stroke-width="1.5"></path><path d="M387.38 641.04L538.75 673.14" stroke="rgba(81, 67, 12, 1)" stroke-width="1.5"></path><path d="M387.38 641.04L490.44 502.86" stroke="rgba(81, 67, 12, 1)" stroke-width="1.5"></path><path d="M505.4 358.84L505.4 358.84" stroke="rgba(81, 67, 12, 1)" stroke-width="1.5"></path><path d="M505.4 358.84L490.44 502.86" stroke="rgba(81, 67, 12, 1)" stroke-width="1.5"></path><path d="M505.4 358.84L706.27 364.57" stroke="rgba(81, 67, 12, 1)" stroke-width="1.5"></path><path d="M490.44 502.86L490.44 502.86" stroke="rgba(81, 67, 12, 1)" stroke-width="1.5"></path><path d="M490.44 502.86L382.99 400.33" stroke="rgba(81, 67, 12, 1)" stroke-width="1.5"></path><path d="M538.75 673.14L538.75 673.14" stroke="rgba(81, 67, 12, 1)" stroke-width="1.5"></path><path d="M538.75 673.14L696.83 637.89" stroke="rgba(81, 67, 12, 1)" stroke-width="1.5"></path><path d="M689.72 201.85L689.72 201.85" stroke="rgba(81, 67, 12, 1)" stroke-width="1.5"></path><path d="M689.72 201.85L833 242.97" stroke="rgba(81, 67, 12, 1)" stroke-width="1.5"></path><path d="M689.72 201.85L814.25 110.62" stroke="rgba(81, 67, 12, 1)" stroke-width="1.5"></path><path d="M689.72 201.85L706.27 364.57" stroke="rgba(81, 67, 12, 1)" stroke-width="1.5"></path><path d="M689.72 201.85L505.4 358.84" stroke="rgba(81, 67, 12, 1)" stroke-width="1.5"></path><path d="M689.72 201.85L937.97 255.16" stroke="rgba(81, 67, 12, 1)" stroke-width="1.5"></path><path d="M689.72 201.85L975.92 105" stroke="rgba(81, 67, 12, 1)" stroke-width="1.5"></path><path d="M706.27 364.57L706.27 364.57" stroke="rgba(81, 67, 12, 1)" stroke-width="1.5"></path><path d="M706.27 364.57L833 242.97" stroke="rgba(81, 67, 12, 1)" stroke-width="1.5"></path><path d="M706.27 364.57L805.6 518.83" stroke="rgba(81, 67, 12, 1)" stroke-width="1.5"></path><path d="M706.27 364.57L711.57 558.04" stroke="rgba(81, 67, 12, 1)" stroke-width="1.5"></path><path d="M711.57 558.04L711.57 558.04" stroke="rgba(81, 67, 12, 1)" stroke-width="1.5"></path><path d="M711.57 558.04L696.83 637.89" stroke="rgba(81, 67, 12, 1)" stroke-width="1.5"></path><path d="M711.57 558.04L805.6 518.83" stroke="rgba(81, 67, 12, 1)" stroke-width="1.5"></path><path d="M696.83 637.89L696.83 637.89" stroke="rgba(81, 67, 12, 1)" stroke-width="1.5"></path><path d="M696.83 637.89L822.24 705.96" stroke="rgba(81, 67, 12, 1)" stroke-width="1.5"></path><path d="M696.83 637.89L805.6 518.83" stroke="rgba(81, 67, 12, 1)" stroke-width="1.5"></path><path d="M696.83 637.89L490.44 502.86" stroke="rgba(81, 67, 12, 1)" stroke-width="1.5"></path><path d="M696.83 637.89L955.85 642.2" stroke="rgba(81, 67, 12, 1)" stroke-width="1.5"></path><path d="M814.25 110.62L814.25 110.62" stroke="rgba(81, 67, 12, 1)" stroke-width="1.5"></path><path d="M814.25 110.62L833 242.97" stroke="rgba(81, 67, 12, 1)" stroke-width="1.5"></path><path d="M814.25 110.62L975.92 105" stroke="rgba(81, 67, 12, 1)" stroke-width="1.5"></path><path d="M814.25 110.62L937.97 255.16" stroke="rgba(81, 67, 12, 1)" stroke-width="1.5"></path><path d="M814.25 110.62L706.27 364.57" stroke="rgba(81, 67, 12, 1)" stroke-width="1.5"></path><path d="M814.25 110.62L1005.79 381.1" stroke="rgba(81, 67, 12, 1)" stroke-width="1.5"></path><path d="M833 242.97L833 242.97" stroke="rgba(81, 67, 12, 1)" stroke-width="1.5"></path><path d="M833 242.97L937.97 255.16" stroke="rgba(81, 67, 12, 1)" stroke-width="1.5"></path><path d="M805.6 518.83L805.6 518.83" stroke="rgba(81, 67, 12, 1)" stroke-width="1.5"></path><path d="M805.6 518.83L822.24 705.96" stroke="rgba(81, 67, 12, 1)" stroke-width="1.5"></path><path d="M805.6 518.83L997.68 528.55" stroke="rgba(81, 67, 12, 1)" stroke-width="1.5"></path><path d="M805.6 518.83L955.85 642.2" stroke="rgba(81, 67, 12, 1)" stroke-width="1.5"></path><path d="M822.24 705.96L822.24 705.96" stroke="rgba(81, 67, 12, 1)" stroke-width="1.5"></path><path d="M822.24 705.96L955.85 642.2" stroke="rgba(81, 67, 12, 1)" stroke-width="1.5"></path><path d="M822.24 705.96L711.57 558.04" stroke="rgba(81, 67, 12, 1)" stroke-width="1.5"></path><path d="M975.92 105L975.92 105" stroke="rgba(81, 67, 12, 1)" stroke-width="1.5"></path><path d="M975.92 105L937.97 255.16" stroke="rgba(81, 67, 12, 1)" stroke-width="1.5"></path><path d="M975.92 105L1146.22 52.77" stroke="rgba(81, 67, 12, 1)" stroke-width="1.5"></path><path d="M975.92 105L1142.15 194.18" stroke="rgba(81, 67, 12, 1)" stroke-width="1.5"></path><path d="M975.92 105L833 242.97" stroke="rgba(81, 67, 12, 1)" stroke-width="1.5"></path><path d="M975.92 105L1088.97 -77.69" stroke="rgba(81, 67, 12, 1)" stroke-width="1.5"></path><path d="M937.97 255.16L937.97 255.16" stroke="rgba(81, 67, 12, 1)" stroke-width="1.5"></path><path d="M937.97 255.16L1005.79 381.1" stroke="rgba(81, 67, 12, 1)" stroke-width="1.5"></path><path d="M1005.79 381.1L1005.79 381.1" stroke="rgba(81, 67, 12, 1)" stroke-width="1.5"></path><path d="M1005.79 381.1L1088.81 391.81" stroke="rgba(81, 67, 12, 1)" stroke-width="1.5"></path><path d="M1005.79 381.1L997.68 528.55" stroke="rgba(81, 67, 12, 1)" stroke-width="1.5"></path><path d="M1005.79 381.1L1141.81 496.96" stroke="rgba(81, 67, 12, 1)" stroke-width="1.5"></path><path d="M1005.79 381.1L833 242.97" stroke="rgba(81, 67, 12, 1)" stroke-width="1.5"></path><path d="M1005.79 381.1L1142.15 194.18" stroke="rgba(81, 67, 12, 1)" stroke-width="1.5"></path><path d="M997.68 528.55L997.68 528.55" stroke="rgba(81, 67, 12, 1)" stroke-width="1.5"></path><path d="M997.68 528.55L955.85 642.2" stroke="rgba(81, 67, 12, 1)" stroke-width="1.5"></path><path d="M997.68 528.55L1141.81 496.96" stroke="rgba(81, 67, 12, 1)" stroke-width="1.5"></path><path d="M997.68 528.55L1088.81 391.81" stroke="rgba(81, 67, 12, 1)" stroke-width="1.5"></path><path d="M997.68 528.55L1112.11 657.19" stroke="rgba(81, 67, 12, 1)" stroke-width="1.5"></path><path d="M955.85 642.2L955.85 642.2" stroke="rgba(81, 67, 12, 1)" stroke-width="1.5"></path><path d="M955.85 642.2L1112.11 657.19" stroke="rgba(81, 67, 12, 1)" stroke-width="1.5"></path><path d="M955.85 642.2L1141.81 496.96" stroke="rgba(81, 67, 12, 1)" stroke-width="1.5"></path><path d="M955.85 642.2L711.57 558.04" stroke="rgba(81, 67, 12, 1)" stroke-width="1.5"></path><path d="M1088.97 -77.69L1088.97 -77.69" stroke="rgba(81, 67, 12, 1)" stroke-width="1.5"></path><path d="M1088.97 -77.69L1146.22 52.77" stroke="rgba(81, 67, 12, 1)" stroke-width="1.5"></path><path d="M1088.97 -77.69L1286.28 -48.58" stroke="rgba(81, 67, 12, 1)" stroke-width="1.5"></path><path d="M1088.97 -77.69L1311.77 63.66" stroke="rgba(81, 67, 12, 1)" stroke-width="1.5"></path><path d="M1088.97 -77.69L1142.15 194.18" stroke="rgba(81, 67, 12, 1)" stroke-width="1.5"></path><path d="M1146.22 52.77L1146.22 52.77" stroke="rgba(81, 67, 12, 1)" stroke-width="1.5"></path><path d="M1146.22 52.77L1142.15 194.18" stroke="rgba(81, 67, 12, 1)" stroke-width="1.5"></path><path d="M1142.15 194.18L1142.15 194.18" stroke="rgba(81, 67, 12, 1)" stroke-width="1.5"></path><path d="M1142.15 194.18L1270.6 250.42" stroke="rgba(81, 67, 12, 1)" stroke-width="1.5"></path><path d="M1142.15 194.18L1088.81 391.81" stroke="rgba(81, 67, 12, 1)" stroke-width="1.5"></path><path d="M1088.81 391.81L1088.81 391.81" stroke="rgba(81, 67, 12, 1)" stroke-width="1.5"></path><path d="M1088.81 391.81L1141.81 496.96" stroke="rgba(81, 67, 12, 1)" stroke-width="1.5"></path><path d="M1141.81 496.96L1141.81 496.96" stroke="rgba(81, 67, 12, 1)" stroke-width="1.5"></path><path d="M1141.81 496.96L1239.04 528.76" stroke="rgba(81, 67, 12, 1)" stroke-width="1.5"></path><path d="M1141.81 496.96L1112.11 657.19" stroke="rgba(81, 67, 12, 1)" stroke-width="1.5"></path><path d="M1112.11 657.19L1112.11 657.19" stroke="rgba(81, 67, 12, 1)" stroke-width="1.5"></path><path d="M1112.11 657.19L1252.26 680.88" stroke="rgba(81, 67, 12, 1)" stroke-width="1.5"></path><path d="M1112.11 657.19L1239.04 528.76" stroke="rgba(81, 67, 12, 1)" stroke-width="1.5"></path><path d="M1112.11 657.19L1088.81 391.81" stroke="rgba(81, 67, 12, 1)" stroke-width="1.5"></path><path d="M1286.28 -48.58L1286.28 -48.58" stroke="rgba(81, 67, 12, 1)" stroke-width="1.5"></path><path d="M1286.28 -48.58L1311.77 63.66" stroke="rgba(81, 67, 12, 1)" stroke-width="1.5"></path><path d="M1286.28 -48.58L1442.89 -90.16" stroke="rgba(81, 67, 12, 1)" stroke-width="1.5"></path><path d="M1286.28 -48.58L1146.22 52.77" stroke="rgba(81, 67, 12, 1)" stroke-width="1.5"></path><path d="M1311.77 63.66L1311.77 63.66" stroke="rgba(81, 67, 12, 1)" stroke-width="1.5"></path><path d="M1311.77 63.66L1432.51 77.47" stroke="rgba(81, 67, 12, 1)" stroke-width="1.5"></path><path d="M1311.77 63.66L1146.22 52.77" stroke="rgba(81, 67, 12, 1)" stroke-width="1.5"></path><path d="M1311.77 63.66L1270.6 250.42" stroke="rgba(81, 67, 12, 1)" stroke-width="1.5"></path><path d="M1311.77 63.66L1442.89 -90.16" stroke="rgba(81, 67, 12, 1)" stroke-width="1.5"></path><path d="M1311.77 63.66L1405.6 249.15" stroke="rgba(81, 67, 12, 1)" stroke-width="1.5"></path><path d="M1270.6 250.42L1270.6 250.42" stroke="rgba(81, 67, 12, 1)" stroke-width="1.5"></path><path d="M1270.6 250.42L1405.6 249.15" stroke="rgba(81, 67, 12, 1)" stroke-width="1.5"></path><path d="M1270.6 250.42L1456.51 384.15" stroke="rgba(81, 67, 12, 1)" stroke-width="1.5"></path><path d="M1270.6 250.42L1088.81 391.81" stroke="rgba(81, 67, 12, 1)" stroke-width="1.5"></path><path d="M1239.04 528.76L1239.04 528.76" stroke="rgba(81, 67, 12, 1)" stroke-width="1.5"></path><path d="M1239.04 528.76L1252.26 680.88" stroke="rgba(81, 67, 12, 1)" stroke-width="1.5"></path><path d="M1239.04 528.76L1088.81 391.81" stroke="rgba(81, 67, 12, 1)" stroke-width="1.5"></path><path d="M1239.04 528.76L1442.54 530.86" stroke="rgba(81, 67, 12, 1)" stroke-width="1.5"></path><path d="M1252.26 680.88L1252.26 680.88" stroke="rgba(81, 67, 12, 1)" stroke-width="1.5"></path><path d="M1252.26 680.88L1424.14 638.12" stroke="rgba(81, 67, 12, 1)" stroke-width="1.5"></path><path d="M1252.26 680.88L1141.81 496.96" stroke="rgba(81, 67, 12, 1)" stroke-width="1.5"></path><path d="M1252.26 680.88L1442.54 530.86" stroke="rgba(81, 67, 12, 1)" stroke-width="1.5"></path><path d="M1252.26 680.88L997.68 528.55" stroke="rgba(81, 67, 12, 1)" stroke-width="1.5"></path><path d="M1442.89 -90.16L1442.89 -90.16" stroke="rgba(81, 67, 12, 1)" stroke-width="1.5"></path><path d="M1442.89 -90.16L1545.96 -95.32" stroke="rgba(81, 67, 12, 1)" stroke-width="1.5"></path><path d="M1432.51 77.47L1432.51 77.47" stroke="rgba(81, 67, 12, 1)" stroke-width="1.5"></path><path d="M1432.51 77.47L1593.31 96.56" stroke="rgba(81, 67, 12, 1)" stroke-width="1.5"></path><path d="M1432.51 77.47L1442.89 -90.16" stroke="rgba(81, 67, 12, 1)" stroke-width="1.5"></path><path d="M1405.6 249.15L1405.6 249.15" stroke="rgba(81, 67, 12, 1)" stroke-width="1.5"></path><path d="M1405.6 249.15L1456.51 384.15" stroke="rgba(81, 67, 12, 1)" stroke-width="1.5"></path><path d="M1405.6 249.15L1551.92 230.7" stroke="rgba(81, 67, 12, 1)" stroke-width="1.5"></path><path d="M1405.6 249.15L1432.51 77.47" stroke="rgba(81, 67, 12, 1)" stroke-width="1.5"></path><path d="M1456.51 384.15L1456.51 384.15" stroke="rgba(81, 67, 12, 1)" stroke-width="1.5"></path><path d="M1456.51 384.15L1597.04 360.15" stroke="rgba(81, 67, 12, 1)" stroke-width="1.5"></path><path d="M1442.54 530.86L1442.54 530.86" stroke="rgba(81, 67, 12, 1)" stroke-width="1.5"></path><path d="M1442.54 530.86L1424.14 638.12" stroke="rgba(81, 67, 12, 1)" stroke-width="1.5"></path><path d="M1442.54 530.86L1573.99 557.08" stroke="rgba(81, 67, 12, 1)" stroke-width="1.5"></path><path d="M1442.54 530.86L1456.51 384.15" stroke="rgba(81, 67, 12, 1)" stroke-width="1.5"></path><path d="M1424.14 638.12L1424.14 638.12" stroke="rgba(81, 67, 12, 1)" stroke-width="1.5"></path><path d="M1424.14 638.12L1559.9 707" stroke="rgba(81, 67, 12, 1)" stroke-width="1.5"></path><path d="M1424.14 638.12L1573.99 557.08" stroke="rgba(81, 67, 12, 1)" stroke-width="1.5"></path><path d="M1545.96 -95.32L1545.96 -95.32" stroke="rgba(81, 67, 12, 1)" stroke-width="1.5"></path><path d="M1545.96 -95.32L1593.31 96.56" stroke="rgba(81, 67, 12, 1)" stroke-width="1.5"></path><path d="M1545.96 -95.32L1432.51 77.47" stroke="rgba(81, 67, 12, 1)" stroke-width="1.5"></path><path d="M1545.96 -95.32L1286.28 -48.58" stroke="rgba(81, 67, 12, 1)" stroke-width="1.5"></path><path d="M1545.96 -95.32L1311.77 63.66" stroke="rgba(81, 67, 12, 1)" stroke-width="1.5"></path><path d="M1545.96 -95.32L1551.92 230.7" stroke="rgba(81, 67, 12, 1)" stroke-width="1.5"></path><path d="M1593.31 96.56L1593.31 96.56" stroke="rgba(81, 67, 12, 1)" stroke-width="1.5"></path><path d="M1593.31 96.56L1551.92 230.7" stroke="rgba(81, 67, 12, 1)" stroke-width="1.5"></path><path d="M1593.31 96.56L1442.89 -90.16" stroke="rgba(81, 67, 12, 1)" stroke-width="1.5"></path><path d="M1593.31 96.56L1405.6 249.15" stroke="rgba(81, 67, 12, 1)" stroke-width="1.5"></path><path d="M1593.31 96.56L1597.04 360.15" stroke="rgba(81, 67, 12, 1)" stroke-width="1.5"></path><path d="M1551.92 230.7L1551.92 230.7" stroke="rgba(81, 67, 12, 1)" stroke-width="1.5"></path><path d="M1551.92 230.7L1597.04 360.15" stroke="rgba(81, 67, 12, 1)" stroke-width="1.5"></path><path d="M1551.92 230.7L1456.51 384.15" stroke="rgba(81, 67, 12, 1)" stroke-width="1.5"></path><path d="M1551.92 230.7L1432.51 77.47" stroke="rgba(81, 67, 12, 1)" stroke-width="1.5"></path><path d="M1597.04 360.15L1597.04 360.15" stroke="rgba(81, 67, 12, 1)" stroke-width="1.5"></path><path d="M1597.04 360.15L1573.99 557.08" stroke="rgba(81, 67, 12, 1)" stroke-width="1.5"></path><path d="M1597.04 360.15L1405.6 249.15" stroke="rgba(81, 67, 12, 1)" stroke-width="1.5"></path><path d="M1573.99 557.08L1573.99 557.08" stroke="rgba(81, 67, 12, 1)" stroke-width="1.5"></path><path d="M1573.99 557.08L1559.9 707" stroke="rgba(81, 67, 12, 1)" stroke-width="1.5"></path><path d="M1559.9 707L1559.9 707" stroke="rgba(81, 67, 12, 1)" stroke-width="1.5"></path><path d="M1559.9 707L1442.54 530.86" stroke="rgba(81, 67, 12, 1)" stroke-width="1.5"></path><circle r="5" cx="-44.68" cy="362.01" fill="rgba(81, 67, 12, 1)"></circle><circle r="5" cx="-104.93" cy="557.22" fill="rgba(81, 67, 12, 1)"></circle><circle r="5" cx="-108.59" cy="676.96" fill="rgba(81, 67, 12, 1)"></circle><circle r="5" cx="86.49" cy="372.38" fill="rgba(81, 67, 12, 1)"></circle><circle r="5" cx="95.81" cy="517.01" fill="rgba(81, 67, 12, 1)"></circle><circle r="5" cx="49.48" cy="651.77" fill="rgba(81, 67, 12, 1)"></circle><circle r="5" cx="240.4" cy="409.59" fill="rgba(81, 67, 12, 1)"></circle><circle r="5" cx="235.31" cy="546.45" fill="rgba(81, 67, 12, 1)"></circle><circle r="5" cx="190.24" cy="654.18" fill="rgba(81, 67, 12, 1)"></circle><circle r="5" cx="382.99" cy="400.33" fill="rgba(81, 67, 12, 1)"></circle><circle r="5" cx="406.11" cy="544.88" fill="rgba(81, 67, 12, 1)"></circle><circle r="5" cx="387.38" cy="641.04" fill="rgba(81, 67, 12, 1)"></circle><circle r="5" cx="505.4" cy="358.84" fill="rgba(81, 67, 12, 1)"></circle><circle r="5" cx="490.44" cy="502.86" fill="rgba(81, 67, 12, 1)"></circle><circle r="5" cx="538.75" cy="673.14" fill="rgba(81, 67, 12, 1)"></circle><circle r="5" cx="689.72" cy="201.85" fill="rgba(81, 67, 12, 1)"></circle><circle r="5" cx="706.27" cy="364.57" fill="rgba(81, 67, 12, 1)"></circle><circle r="5" cx="711.57" cy="558.04" fill="rgba(81, 67, 12, 1)"></circle><circle r="5" cx="696.83" cy="637.89" fill="rgba(81, 67, 12, 1)"></circle><circle r="5" cx="814.25" cy="110.62" fill="rgba(81, 67, 12, 1)"></circle><circle r="5" cx="833" cy="242.97" fill="rgba(81, 67, 12, 1)"></circle><circle r="5" cx="805.6" cy="518.83" fill="rgba(81, 67, 12, 1)"></circle><circle r="5" cx="822.24" cy="705.96" fill="rgba(81, 67, 12, 1)"></circle><circle r="5" cx="975.92" cy="105" fill="rgba(81, 67, 12, 1)"></circle><circle r="5" cx="937.97" cy="255.16" fill="rgba(81, 67, 12, 1)"></circle><circle r="5" cx="1005.79" cy="381.1" fill="rgba(81, 67, 12, 1)"></circle><circle r="5" cx="997.68" cy="528.55" fill="rgba(81, 67, 12, 1)"></circle><circle r="5" cx="955.85" cy="642.2" fill="rgba(81, 67, 12, 1)"></circle><circle r="5" cx="1088.97" cy="-77.69" fill="rgba(81, 67, 12, 1)"></circle><circle r="5" cx="1146.22" cy="52.77" fill="rgba(81, 67, 12, 1)"></circle><circle r="5" cx="1142.15" cy="194.18" fill="rgba(81, 67, 12, 1)"></circle><circle r="5" cx="1088.81" cy="391.81" fill="rgba(81, 67, 12, 1)"></circle><circle r="5" cx="1141.81" cy="496.96" fill="rgba(81, 67, 12, 1)"></circle><circle r="5" cx="1112.11" cy="657.19" fill="rgba(81, 67, 12, 1)"></circle><circle r="5" cx="1286.28" cy="-48.58" fill="rgba(81, 67, 12, 1)"></circle><circle r="5" cx="1311.77" cy="63.66" fill="rgba(81, 67, 12, 1)"></circle><circle r="5" cx="1270.6" cy="250.42" fill="rgba(81, 67, 12, 1)"></circle><circle r="5" cx="1239.04" cy="528.76" fill="rgba(81, 67, 12, 1)"></circle><circle r="5" cx="1252.26" cy="680.88" fill="rgba(81, 67, 12, 1)"></circle><circle r="5" cx="1442.89" cy="-90.16" fill="rgba(81, 67, 12, 1)"></circle><circle r="5" cx="1432.51" cy="77.47" fill="rgba(81, 67, 12, 1)"></circle><circle r="5" cx="1405.6" cy="249.15" fill="rgba(81, 67, 12, 1)"></circle><circle r="5" cx="1456.51" cy="384.15" fill="rgba(81, 67, 12, 1)"></circle><circle r="5" cx="1442.54" cy="530.86" fill="rgba(81, 67, 12, 1)"></circle><circle r="5" cx="1424.14" cy="638.12" fill="rgba(81, 67, 12, 1)"></circle><circle r="5" cx="1545.96" cy="-95.32" fill="rgba(81, 67, 12, 1)"></circle><circle r="5" cx="1593.31" cy="96.56" fill="rgba(81, 67, 12, 1)"></circle><circle r="5" cx="1551.92" cy="230.7" fill="rgba(81, 67, 12, 1)"></circle><circle r="5" cx="1597.04" cy="360.15" fill="rgba(81, 67, 12, 1)"></circle><circle r="5" cx="1573.99" cy="557.08" fill="rgba(81, 67, 12, 1)"></circle><circle r="5" cx="1559.9" cy="707" fill="rgba(81, 67, 12, 1)"></circle><path d="M557.9 686.33L557.9 686.33" stroke="hsl(47.19999999999999, 77.9%, 55.3%)" stroke-width="1.5"></path><path d="M557.9 686.33L671.17 699.29" stroke="hsl(47.19999999999999, 77.9%, 55.3%)" stroke-width="1.5"></path><path d="M557.9 686.33L670.87 528.3" stroke="hsl(47.19999999999999, 77.9%, 55.3%)" stroke-width="1.5"></path><path d="M557.9 686.33L503.36 492.43" stroke="hsl(47.19999999999999, 77.9%, 55.3%)" stroke-width="1.5"></path><path d="M557.9 686.33L789.46 711.81" stroke="hsl(47.19999999999999, 77.9%, 55.3%)" stroke-width="1.5"></path><path d="M557.9 686.33L366.25 518.57" stroke="hsl(47.19999999999999, 77.9%, 55.3%)" stroke-width="1.5"></path><path d="M664.33 376.63L664.33 376.63" stroke="hsl(47.19999999999999, 77.9%, 55.3%)" stroke-width="1.5"></path><path d="M664.33 376.63L670.87 528.3" stroke="hsl(47.19999999999999, 77.9%, 55.3%)" stroke-width="1.5"></path><path d="M664.33 376.63L819.89 405.45" stroke="hsl(47.19999999999999, 77.9%, 55.3%)" stroke-width="1.5"></path><path d="M664.33 376.63L503.36 492.43" stroke="hsl(47.19999999999999, 77.9%, 55.3%)" stroke-width="1.5"></path><path d="M670.87 528.3L670.87 528.3" stroke="hsl(47.19999999999999, 77.9%, 55.3%)" stroke-width="1.5"></path><path d="M670.87 528.3L810.1 548.63" stroke="hsl(47.19999999999999, 77.9%, 55.3%)" stroke-width="1.5"></path><path d="M670.87 528.3L671.17 699.29" stroke="hsl(47.19999999999999, 77.9%, 55.3%)" stroke-width="1.5"></path><path d="M670.87 528.3L503.36 492.43" stroke="hsl(47.19999999999999, 77.9%, 55.3%)" stroke-width="1.5"></path><path d="M789.46 711.81L789.46 711.81" stroke="hsl(47.19999999999999, 77.9%, 55.3%)" stroke-width="1.5"></path><path d="M789.46 711.81L671.17 699.29" stroke="hsl(47.19999999999999, 77.9%, 55.3%)" stroke-width="1.5"></path><path d="M789.46 711.81L810.1 548.63" stroke="hsl(47.19999999999999, 77.9%, 55.3%)" stroke-width="1.5"></path><path d="M789.46 711.81L998.5 688.83" stroke="hsl(47.19999999999999, 77.9%, 55.3%)" stroke-width="1.5"></path><path d="M789.46 711.81L670.87 528.3" stroke="hsl(47.19999999999999, 77.9%, 55.3%)" stroke-width="1.5"></path><path d="M789.46 711.81L1011.48 519.67" stroke="hsl(47.19999999999999, 77.9%, 55.3%)" stroke-width="1.5"></path><path d="M964.65 394.82L964.65 394.82" stroke="hsl(47.19999999999999, 77.9%, 55.3%)" stroke-width="1.5"></path><path d="M964.65 394.82L1011.48 519.67" stroke="hsl(47.19999999999999, 77.9%, 55.3%)" stroke-width="1.5"></path><path d="M964.65 394.82L819.89 405.45" stroke="hsl(47.19999999999999, 77.9%, 55.3%)" stroke-width="1.5"></path><path d="M964.65 394.82L1160.35 363.02" stroke="hsl(47.19999999999999, 77.9%, 55.3%)" stroke-width="1.5"></path><path d="M964.65 394.82L1129.45 521.42" stroke="hsl(47.19999999999999, 77.9%, 55.3%)" stroke-width="1.5"></path><path d="M1129.45 521.42L1129.45 521.42" stroke="hsl(47.19999999999999, 77.9%, 55.3%)" stroke-width="1.5"></path><path d="M1129.45 521.42L1011.48 519.67" stroke="hsl(47.19999999999999, 77.9%, 55.3%)" stroke-width="1.5"></path><path d="M1129.45 521.42L1260.17 516.99" stroke="hsl(47.19999999999999, 77.9%, 55.3%)" stroke-width="1.5"></path><path d="M1129.45 521.42L1160.35 363.02" stroke="hsl(47.19999999999999, 77.9%, 55.3%)" stroke-width="1.5"></path><path d="M1260.17 516.99L1260.17 516.99" stroke="hsl(47.19999999999999, 77.9%, 55.3%)" stroke-width="1.5"></path><path d="M1260.17 516.99L1398.34 522.16" stroke="hsl(47.19999999999999, 77.9%, 55.3%)" stroke-width="1.5"></path><path d="M1389.63 384.48L1389.63 384.48" stroke="hsl(47.19999999999999, 77.9%, 55.3%)" stroke-width="1.5"></path><path d="M1389.63 384.48L1287.85 346.14" stroke="hsl(47.19999999999999, 77.9%, 55.3%)" stroke-width="1.5"></path><path d="M1389.63 384.48L1398.34 522.16" stroke="hsl(47.19999999999999, 77.9%, 55.3%)" stroke-width="1.5"></path><path d="M1389.63 384.48L1537.76 373.87" stroke="hsl(47.19999999999999, 77.9%, 55.3%)" stroke-width="1.5"></path><path d="M1398.34 522.16L1398.34 522.16" stroke="hsl(47.19999999999999, 77.9%, 55.3%)" stroke-width="1.5"></path><path d="M1398.34 522.16L1560.3 544.68" stroke="hsl(47.19999999999999, 77.9%, 55.3%)" stroke-width="1.5"></path><path d="M1398.34 522.16L1389.73 690.56" stroke="hsl(47.19999999999999, 77.9%, 55.3%)" stroke-width="1.5"></path><path d="M1578.35 -55.41L1578.35 -55.41" stroke="hsl(47.19999999999999, 77.9%, 55.3%)" stroke-width="1.5"></path><path d="M1578.35 -55.41L1433.52 -51.69" stroke="hsl(47.19999999999999, 77.9%, 55.3%)" stroke-width="1.5"></path><path d="M1578.35 -55.41L1559.05 95.54" stroke="hsl(47.19999999999999, 77.9%, 55.3%)" stroke-width="1.5"></path><path d="M1578.35 -55.41L1433.87 111.21" stroke="hsl(47.19999999999999, 77.9%, 55.3%)" stroke-width="1.5"></path><path d="M1578.35 -55.41L1610.77 206.58" stroke="hsl(47.19999999999999, 77.9%, 55.3%)" stroke-width="1.5"></path><path d="M1578.35 -55.41L1303.73 -51.9" stroke="hsl(47.19999999999999, 77.9%, 55.3%)" stroke-width="1.5"></path><path d="M1560.3 544.68L1560.3 544.68" stroke="hsl(47.19999999999999, 77.9%, 55.3%)" stroke-width="1.5"></path><path d="M1560.3 544.68L1566.21 711.85" stroke="hsl(47.19999999999999, 77.9%, 55.3%)" stroke-width="1.5"></path><path d="M1560.3 544.68L1537.76 373.87" stroke="hsl(47.19999999999999, 77.9%, 55.3%)" stroke-width="1.5"></path><path d="M-49.87 552.91L-49.87 552.91" stroke="hsl(47.19999999999999, 77.9%, 55.3%)" stroke-width="1.5"></path><path d="M-49.87 552.91L-105.97 677.41" stroke="hsl(47.19999999999999, 77.9%, 55.3%)" stroke-width="1.5"></path><path d="M-49.87 552.91L93.93 541.94" stroke="hsl(47.19999999999999, 77.9%, 55.3%)" stroke-width="1.5"></path><path d="M-49.87 552.91L111.76 691.37" stroke="hsl(47.19999999999999, 77.9%, 55.3%)" stroke-width="1.5"></path><path d="M-105.97 677.41L-105.97 677.41" stroke="hsl(47.19999999999999, 77.9%, 55.3%)" stroke-width="1.5"></path><path d="M-105.97 677.41L111.76 691.37" stroke="hsl(47.19999999999999, 77.9%, 55.3%)" stroke-width="1.5"></path><path d="M93.93 541.94L93.93 541.94" stroke="hsl(47.19999999999999, 77.9%, 55.3%)" stroke-width="1.5"></path><path d="M93.93 541.94L111.76 691.37" stroke="hsl(47.19999999999999, 77.9%, 55.3%)" stroke-width="1.5"></path><path d="M93.93 541.94L206.67 662.32" stroke="hsl(47.19999999999999, 77.9%, 55.3%)" stroke-width="1.5"></path><path d="M93.93 541.94L-105.97 677.41" stroke="hsl(47.19999999999999, 77.9%, 55.3%)" stroke-width="1.5"></path><path d="M93.93 541.94L366.25 518.57" stroke="hsl(47.19999999999999, 77.9%, 55.3%)" stroke-width="1.5"></path><path d="M93.93 541.94L503.36 492.43" stroke="hsl(47.19999999999999, 77.9%, 55.3%)" stroke-width="1.5"></path><path d="M111.76 691.37L111.76 691.37" stroke="hsl(47.19999999999999, 77.9%, 55.3%)" stroke-width="1.5"></path><path d="M111.76 691.37L206.67 662.32" stroke="hsl(47.19999999999999, 77.9%, 55.3%)" stroke-width="1.5"></path><path d="M206.67 662.32L206.67 662.32" stroke="hsl(47.19999999999999, 77.9%, 55.3%)" stroke-width="1.5"></path><path d="M206.67 662.32L366.25 518.57" stroke="hsl(47.19999999999999, 77.9%, 55.3%)" stroke-width="1.5"></path><path d="M206.67 662.32L-49.87 552.91" stroke="hsl(47.19999999999999, 77.9%, 55.3%)" stroke-width="1.5"></path><path d="M206.67 662.32L-105.97 677.41" stroke="hsl(47.19999999999999, 77.9%, 55.3%)" stroke-width="1.5"></path><path d="M206.67 662.32L503.36 492.43" stroke="hsl(47.19999999999999, 77.9%, 55.3%)" stroke-width="1.5"></path><path d="M366.25 518.57L366.25 518.57" stroke="hsl(47.19999999999999, 77.9%, 55.3%)" stroke-width="1.5"></path><path d="M366.25 518.57L503.36 492.43" stroke="hsl(47.19999999999999, 77.9%, 55.3%)" stroke-width="1.5"></path><path d="M503.36 492.43L503.36 492.43" stroke="hsl(47.19999999999999, 77.9%, 55.3%)" stroke-width="1.5"></path><path d="M503.36 492.43L671.17 699.29" stroke="hsl(47.19999999999999, 77.9%, 55.3%)" stroke-width="1.5"></path><path d="M671.17 699.29L671.17 699.29" stroke="hsl(47.19999999999999, 77.9%, 55.3%)" stroke-width="1.5"></path><path d="M671.17 699.29L810.1 548.63" stroke="hsl(47.19999999999999, 77.9%, 55.3%)" stroke-width="1.5"></path><path d="M819.89 405.45L819.89 405.45" stroke="hsl(47.19999999999999, 77.9%, 55.3%)" stroke-width="1.5"></path><path d="M819.89 405.45L810.1 548.63" stroke="hsl(47.19999999999999, 77.9%, 55.3%)" stroke-width="1.5"></path><path d="M819.89 405.45L670.87 528.3" stroke="hsl(47.19999999999999, 77.9%, 55.3%)" stroke-width="1.5"></path><path d="M819.89 405.45L1011.48 519.67" stroke="hsl(47.19999999999999, 77.9%, 55.3%)" stroke-width="1.5"></path><path d="M810.1 548.63L810.1 548.63" stroke="hsl(47.19999999999999, 77.9%, 55.3%)" stroke-width="1.5"></path><path d="M810.1 548.63L1011.48 519.67" stroke="hsl(47.19999999999999, 77.9%, 55.3%)" stroke-width="1.5"></path><path d="M810.1 548.63L964.65 394.82" stroke="hsl(47.19999999999999, 77.9%, 55.3%)" stroke-width="1.5"></path><path d="M1011.48 519.67L1011.48 519.67" stroke="hsl(47.19999999999999, 77.9%, 55.3%)" stroke-width="1.5"></path><path d="M1011.48 519.67L998.5 688.83" stroke="hsl(47.19999999999999, 77.9%, 55.3%)" stroke-width="1.5"></path><path d="M998.5 688.83L998.5 688.83" stroke="hsl(47.19999999999999, 77.9%, 55.3%)" stroke-width="1.5"></path><path d="M998.5 688.83L1091.93 689.53" stroke="hsl(47.19999999999999, 77.9%, 55.3%)" stroke-width="1.5"></path><path d="M1151.85 235.82L1151.85 235.82" stroke="hsl(47.19999999999999, 77.9%, 55.3%)" stroke-width="1.5"></path><path d="M1151.85 235.82L1259.21 226.26" stroke="hsl(47.19999999999999, 77.9%, 55.3%)" stroke-width="1.5"></path><path d="M1151.85 235.82L1160.35 363.02" stroke="hsl(47.19999999999999, 77.9%, 55.3%)" stroke-width="1.5"></path><path d="M1160.35 363.02L1160.35 363.02" stroke="hsl(47.19999999999999, 77.9%, 55.3%)" stroke-width="1.5"></path><path d="M1160.35 363.02L1287.85 346.14" stroke="hsl(47.19999999999999, 77.9%, 55.3%)" stroke-width="1.5"></path><path d="M1160.35 363.02L1259.21 226.26" stroke="hsl(47.19999999999999, 77.9%, 55.3%)" stroke-width="1.5"></path><path d="M1160.35 363.02L1260.17 516.99" stroke="hsl(47.19999999999999, 77.9%, 55.3%)" stroke-width="1.5"></path><path d="M1091.93 689.53L1091.93 689.53" stroke="hsl(47.19999999999999, 77.9%, 55.3%)" stroke-width="1.5"></path><path d="M1091.93 689.53L1241.87 687.83" stroke="hsl(47.19999999999999, 77.9%, 55.3%)" stroke-width="1.5"></path><path d="M1303.73 -51.9L1303.73 -51.9" stroke="hsl(47.19999999999999, 77.9%, 55.3%)" stroke-width="1.5"></path><path d="M1303.73 -51.9L1433.52 -51.69" stroke="hsl(47.19999999999999, 77.9%, 55.3%)" stroke-width="1.5"></path><path d="M1303.73 -51.9L1278.69 80.64" stroke="hsl(47.19999999999999, 77.9%, 55.3%)" stroke-width="1.5"></path><path d="M1303.73 -51.9L1433.87 111.21" stroke="hsl(47.19999999999999, 77.9%, 55.3%)" stroke-width="1.5"></path><path d="M1303.73 -51.9L1259.21 226.26" stroke="hsl(47.19999999999999, 77.9%, 55.3%)" stroke-width="1.5"></path><path d="M1303.73 -51.9L1457.27 196.68" stroke="hsl(47.19999999999999, 77.9%, 55.3%)" stroke-width="1.5"></path><path d="M1278.69 80.64L1278.69 80.64" stroke="hsl(47.19999999999999, 77.9%, 55.3%)" stroke-width="1.5"></path><path d="M1278.69 80.64L1259.21 226.26" stroke="hsl(47.19999999999999, 77.9%, 55.3%)" stroke-width="1.5"></path><path d="M1278.69 80.64L1433.87 111.21" stroke="hsl(47.19999999999999, 77.9%, 55.3%)" stroke-width="1.5"></path><path d="M1278.69 80.64L1151.85 235.82" stroke="hsl(47.19999999999999, 77.9%, 55.3%)" stroke-width="1.5"></path><path d="M1278.69 80.64L1433.52 -51.69" stroke="hsl(47.19999999999999, 77.9%, 55.3%)" stroke-width="1.5"></path><path d="M1278.69 80.64L1457.27 196.68" stroke="hsl(47.19999999999999, 77.9%, 55.3%)" stroke-width="1.5"></path><path d="M1259.21 226.26L1259.21 226.26" stroke="hsl(47.19999999999999, 77.9%, 55.3%)" stroke-width="1.5"></path><path d="M1259.21 226.26L1287.85 346.14" stroke="hsl(47.19999999999999, 77.9%, 55.3%)" stroke-width="1.5"></path><path d="M1259.21 226.26L1457.27 196.68" stroke="hsl(47.19999999999999, 77.9%, 55.3%)" stroke-width="1.5"></path><path d="M1259.21 226.26L1389.63 384.48" stroke="hsl(47.19999999999999, 77.9%, 55.3%)" stroke-width="1.5"></path><path d="M1287.85 346.14L1287.85 346.14" stroke="hsl(47.19999999999999, 77.9%, 55.3%)" stroke-width="1.5"></path><path d="M1287.85 346.14L1260.17 516.99" stroke="hsl(47.19999999999999, 77.9%, 55.3%)" stroke-width="1.5"></path><path d="M1287.85 346.14L1151.85 235.82" stroke="hsl(47.19999999999999, 77.9%, 55.3%)" stroke-width="1.5"></path><path d="M1287.85 346.14L1398.34 522.16" stroke="hsl(47.19999999999999, 77.9%, 55.3%)" stroke-width="1.5"></path><path d="M1241.87 687.83L1241.87 687.83" stroke="hsl(47.19999999999999, 77.9%, 55.3%)" stroke-width="1.5"></path><path d="M1241.87 687.83L1389.73 690.56" stroke="hsl(47.19999999999999, 77.9%, 55.3%)" stroke-width="1.5"></path><path d="M1433.52 -51.69L1433.52 -51.69" stroke="hsl(47.19999999999999, 77.9%, 55.3%)" stroke-width="1.5"></path><path d="M1433.52 -51.69L1433.87 111.21" stroke="hsl(47.19999999999999, 77.9%, 55.3%)" stroke-width="1.5"></path><path d="M1433.52 -51.69L1559.05 95.54" stroke="hsl(47.19999999999999, 77.9%, 55.3%)" stroke-width="1.5"></path><path d="M1433.87 111.21L1433.87 111.21" stroke="hsl(47.19999999999999, 77.9%, 55.3%)" stroke-width="1.5"></path><path d="M1433.87 111.21L1457.27 196.68" stroke="hsl(47.19999999999999, 77.9%, 55.3%)" stroke-width="1.5"></path><path d="M1433.87 111.21L1559.05 95.54" stroke="hsl(47.19999999999999, 77.9%, 55.3%)" stroke-width="1.5"></path><path d="M1433.87 111.21L1610.77 206.58" stroke="hsl(47.19999999999999, 77.9%, 55.3%)" stroke-width="1.5"></path><path d="M1457.27 196.68L1457.27 196.68" stroke="hsl(47.19999999999999, 77.9%, 55.3%)" stroke-width="1.5"></path><path d="M1457.27 196.68L1559.05 95.54" stroke="hsl(47.19999999999999, 77.9%, 55.3%)" stroke-width="1.5"></path><path d="M1457.27 196.68L1610.77 206.58" stroke="hsl(47.19999999999999, 77.9%, 55.3%)" stroke-width="1.5"></path><path d="M1389.73 690.56L1389.73 690.56" stroke="hsl(47.19999999999999, 77.9%, 55.3%)" stroke-width="1.5"></path><path d="M1389.73 690.56L1566.21 711.85" stroke="hsl(47.19999999999999, 77.9%, 55.3%)" stroke-width="1.5"></path><path d="M1559.05 95.54L1559.05 95.54" stroke="hsl(47.19999999999999, 77.9%, 55.3%)" stroke-width="1.5"></path><path d="M1559.05 95.54L1610.77 206.58" stroke="hsl(47.19999999999999, 77.9%, 55.3%)" stroke-width="1.5"></path><path d="M1610.77 206.58L1610.77 206.58" stroke="hsl(47.19999999999999, 77.9%, 55.3%)" stroke-width="1.5"></path><path d="M1537.76 373.87L1537.76 373.87" stroke="hsl(47.19999999999999, 77.9%, 55.3%)" stroke-width="1.5"></path><path d="M1566.21 711.85L1566.21 711.85" stroke="hsl(47.19999999999999, 77.9%, 55.3%)" stroke-width="1.5"></path><path d="M1566.21 711.85L1398.34 522.16" stroke="hsl(47.19999999999999, 77.9%, 55.3%)" stroke-width="1.5"></path><path d="M1566.21 711.85L1241.87 687.83" stroke="hsl(47.19999999999999, 77.9%, 55.3%)" stroke-width="1.5"></path><path d="M1566.21 711.85L1537.76 373.87" stroke="hsl(47.19999999999999, 77.9%, 55.3%)" stroke-width="1.5"></path><path d="M1566.21 711.85L1260.17 516.99" stroke="hsl(47.19999999999999, 77.9%, 55.3%)" stroke-width="1.5"></path><circle r="25" cx="557.9" cy="686.33" fill="url(#SvgjsRadialGradient1027)"></circle><circle r="25" cx="664.33" cy="376.63" fill="url(#SvgjsRadialGradient1027)"></circle><circle r="25" cx="670.87" cy="528.3" fill="url(#SvgjsRadialGradient1027)"></circle><circle r="25" cx="789.46" cy="711.81" fill="url(#SvgjsRadialGradient1027)"></circle><circle r="25" cx="964.65" cy="394.82" fill="url(#SvgjsRadialGradient1027)"></circle><circle r="25" cx="1129.45" cy="521.42" fill="url(#SvgjsRadialGradient1027)"></circle><circle r="25" cx="1260.17" cy="516.99" fill="url(#SvgjsRadialGradient1027)"></circle><circle r="25" cx="1389.63" cy="384.48" fill="url(#SvgjsRadialGradient1027)"></circle><circle r="25" cx="1398.34" cy="522.16" fill="url(#SvgjsRadialGradient1027)"></circle><circle r="25" cx="1578.35" cy="-55.41" fill="url(#SvgjsRadialGradient1027)"></circle><circle r="25" cx="1560.3" cy="544.68" fill="url(#SvgjsRadialGradient1027)"></circle><circle r="5" cx="-49.87" cy="552.91" fill="#e0ce8c"></circle><circle r="5" cx="-105.97" cy="677.41" fill="#e0ce8c"></circle><circle r="5" cx="93.93" cy="541.94" fill="#e0ce8c"></circle><circle r="5" cx="111.76" cy="691.37" fill="#e0ce8c"></circle><circle r="5" cx="206.67" cy="662.32" fill="#e0ce8c"></circle><circle r="5" cx="366.25" cy="518.57" fill="#e0ce8c"></circle><circle r="5" cx="503.36" cy="492.43" fill="#e0ce8c"></circle><circle r="5" cx="671.17" cy="699.29" fill="#e0ce8c"></circle><circle r="5" cx="819.89" cy="405.45" fill="#e0ce8c"></circle><circle r="5" cx="810.1" cy="548.63" fill="#e0ce8c"></circle><circle r="5" cx="1011.48" cy="519.67" fill="#e0ce8c"></circle><circle r="5" cx="998.5" cy="688.83" fill="#e0ce8c"></circle><circle r="5" cx="1151.85" cy="235.82" fill="#e0ce8c"></circle><circle r="5" cx="1160.35" cy="363.02" fill="#e0ce8c"></circle><circle r="5" cx="1091.93" cy="689.53" fill="#e0ce8c"></circle><circle r="5" cx="1303.73" cy="-51.9" fill="#e0ce8c"></circle><circle r="5" cx="1278.69" cy="80.64" fill="#e0ce8c"></circle><circle r="5" cx="1259.21" cy="226.26" fill="#e0ce8c"></circle><circle r="5" cx="1287.85" cy="346.14" fill="#e0ce8c"></circle><circle r="5" cx="1241.87" cy="687.83" fill="#e0ce8c"></circle><circle r="5" cx="1433.52" cy="-51.69" fill="#e0ce8c"></circle><circle r="5" cx="1433.87" cy="111.21" fill="#e0ce8c"></circle><circle r="5" cx="1457.27" cy="196.68" fill="#e0ce8c"></circle><circle r="5" cx="1389.73" cy="690.56" fill="#e0ce8c"></circle><circle r="5" cx="1559.05" cy="95.54" fill="#e0ce8c"></circle><circle r="5" cx="1610.77" cy="206.58" fill="#e0ce8c"></circle><circle r="5" cx="1537.76" cy="373.87" fill="#e0ce8c"></circle><circle r="5" cx="1566.21" cy="711.85" fill="#e0ce8c"></circle></g><defs><mask id="SvgjsMask1026"><rect width="1437" height="560" fill="#ffffff"></rect></mask><radialGradient id="SvgjsRadialGradient1027"><stop stop-color="#ffffff" offset="0.1"></stop><stop stop-color="rgba(193, 157, 24, 1)" offset="0.2"></stop><stop stop-color="rgba(193, 157, 24, 0)" offset="1"></stop></radialGradient></defs></svg>